<?xml version="1.0" standalone="no"?>
<!DOCTYPE svg PUBLIC "-//W3C//DTD SVG 20010904//EN"
 "http://www.w3.org/TR/2001/REC-SVG-20010904/DTD/svg10.dtd">
<svg version="1.0" xmlns="http://www.w3.org/2000/svg"
 width="700.000000pt" height="700.000000pt" viewBox="0 0 700.000000 700.000000"
 preserveAspectRatio="xMidYMid meet">
<metadata>
Created by potrace 1.11, written by Peter Selinger 2001-2013
</metadata>
<g transform="translate(0.000000,700.000000) scale(0.100000,-0.100000)"
fill="#000000" stroke="none">
<path d="M3428 6933 c-73 -36 -234 -115 -358 -175 -541 -265 -741 -363 -985
-483 -143 -70 -354 -174 -470 -230 -115 -57 -349 -171 -520 -255 -171 -84
-409 -201 -530 -260 -121 -59 -298 -146 -392 -192 l-173 -85 68 -35 c37 -20
121 -64 187 -98 311 -162 377 -196 470 -245 99 -52 219 -114 450 -235 66 -34
165 -86 220 -115 55 -29 140 -74 189 -99 l89 -46 -394 -194 c-491 -241 -975
-478 -1141 -559 -70 -34 -128 -65 -128 -68 0 -3 33 -22 73 -43 149 -78 345
-181 445 -232 56 -30 150 -79 210 -110 59 -31 159 -83 222 -117 63 -33 160
-83 215 -112 110 -58 294 -154 394 -206 l65 -33 -162 -79 c-141 -69 -160 -81
-145 -92 15 -11 -16 -29 -232 -136 -138 -67 -252 -123 -255 -124 -5 -1 -244
-118 -628 -308 l-213 -105 103 -52 c106 -54 260 -134 383 -200 39 -21 129 -68
200 -105 72 -37 164 -85 205 -106 41 -22 156 -82 255 -133 99 -52 200 -105
225 -118 25 -14 131 -69 235 -123 105 -53 204 -105 220 -115 17 -9 107 -57
200 -105 94 -48 206 -107 250 -130 44 -23 143 -75 220 -115 77 -40 181 -94
230 -120 50 -26 151 -79 225 -118 74 -38 173 -90 220 -114 327 -171 397 -205
410 -200 8 3 31 15 50 27 19 12 76 43 125 70 96 51 517 279 600 325 83 46 404
219 505 273 52 28 180 97 283 154 104 57 190 103 192 103 2 0 30 15 62 33 32
19 92 52 134 75 42 22 235 127 430 233 195 105 388 210 429 232 41 22 89 47
105 57 17 10 80 43 140 75 61 32 115 61 120 65 6 4 45 26 88 49 124 67 139 75
140 84 1 5 -142 82 -318 171 -648 329 -938 477 -947 482 -5 3 -2 11 7 18 13 9
0 19 -82 61 -53 28 -124 64 -157 82 l-61 32 35 16 c19 9 44 22 55 28 11 7 103
57 205 112 102 55 193 104 203 110 10 5 59 32 110 59 50 27 104 57 120 68 15
11 27 16 27 12 0 -3 6 -2 13 4 13 11 61 38 177 99 41 22 95 51 120 65 51 28
133 73 418 227 45 25 82 47 82 50 0 3 -123 68 -273 144 -613 311 -901 458
-1067 544 -96 50 -194 100 -218 112 l-43 22 46 25 c26 13 70 37 98 53 29 15
86 46 127 68 103 56 655 355 710 385 98 54 419 227 480 259 36 19 67 36 70 39
3 3 22 14 43 25 l39 19 -129 65 c-70 36 -130 65 -133 66 -3 0 -9 3 -15 7 -11
7 -276 142 -780 398 -187 95 -452 230 -590 300 -258 132 -603 307 -1235 628
-201 101 -401 203 -445 226 -44 23 -88 45 -97 49 -11 4 -66 -18 -150 -60z"/>
</g>
</svg>
